<svg width="26" height="26" viewBox="0 0 26 26" fill="none" xmlns="http://www.w3.org/2000/svg">
<path d="M19.5 0H6.5C2.91015 0 0 2.91015 0 6.5V19.5C0 23.0899 2.91015 26 6.5 26H19.5C23.0899 26 26 23.0899 26 19.5V6.5C26 2.91015 23.0899 0 19.5 0Z" fill="url(#paint0_linear_356_8240)"/>
<path d="M9.10083 16.5761C8.97277 16.5762 8.84595 16.551 8.72762 16.502C8.60929 16.4531 8.50176 16.3813 8.41118 16.2907L5.81118 13.6907C5.72058 13.6002 5.64871 13.4927 5.59967 13.3744C5.55063 13.256 5.52539 13.1292 5.52539 13.0011C5.52539 12.873 5.55063 12.7462 5.59967 12.6278C5.64871 12.5095 5.72058 12.402 5.81118 12.3114L8.41118 9.71144C8.59409 9.52854 8.84216 9.42578 9.10083 9.42578C9.3595 9.42578 9.60758 9.52854 9.79048 9.71144C9.97339 9.89435 10.0761 10.1424 10.0761 10.4011C10.0761 10.6598 9.97339 10.9078 9.79048 11.0907L7.87948 13.0011L9.79048 14.9114C9.92693 15.0478 10.0199 15.2216 10.0575 15.4108C10.0952 15.5999 10.0759 15.7961 10.002 15.9743C9.9282 16.1525 9.80316 16.3048 9.64275 16.4119C9.48233 16.519 9.29373 16.5762 9.10083 16.5761Z" fill="white"/>
<path d="M16.8993 16.5761C16.7064 16.5762 16.5178 16.519 16.3574 16.4119C16.1969 16.3048 16.0719 16.1525 15.9981 15.9743C15.9242 15.7961 15.9049 15.5999 15.9426 15.4108C15.9802 15.2216 16.0732 15.0478 16.2096 14.9114L18.1206 13.0011L16.2096 11.0907C16.1191 11.0002 16.0472 10.8927 15.9982 10.7743C15.9492 10.656 15.924 10.5292 15.924 10.4011C15.924 10.273 15.9492 10.1462 15.9982 10.0279C16.0472 9.90953 16.1191 9.80201 16.2096 9.71144C16.3925 9.52854 16.6406 9.42578 16.8993 9.42578C17.0274 9.42578 17.1542 9.45101 17.2725 9.50002C17.3908 9.54904 17.4984 9.62088 17.5889 9.71144L20.1889 12.3114C20.2795 12.402 20.3514 12.5095 20.4004 12.6278C20.4495 12.7462 20.4747 12.873 20.4747 13.0011C20.4747 13.1292 20.4495 13.256 20.4004 13.3744C20.3514 13.4927 20.2795 13.6002 20.1889 13.6907L17.5889 16.2907C17.4983 16.3813 17.3908 16.4531 17.2725 16.502C17.1541 16.551 17.0273 16.5762 16.8993 16.5761Z" fill="white"/>
<path d="M11.7 18.5257C11.6092 18.5256 11.5189 18.5129 11.4316 18.488C11.183 18.4169 10.9729 18.2501 10.8473 18.0241C10.7218 17.7981 10.6911 17.5315 10.7621 17.2829L13.3621 8.1829C13.3952 8.05753 13.453 7.94003 13.5321 7.83728C13.6112 7.73453 13.71 7.64858 13.8227 7.58448C13.9355 7.52038 14.0598 7.47941 14.1886 7.46397C14.3173 7.44853 14.4479 7.45892 14.5726 7.49455C14.6972 7.53017 14.8136 7.59031 14.9147 7.67144C15.0159 7.75257 15.0998 7.85306 15.1617 7.96704C15.2235 8.08101 15.262 8.20618 15.2749 8.33521C15.2878 8.46424 15.2748 8.59455 15.2367 8.7185L12.6367 17.8185C12.5785 18.0221 12.4557 18.2012 12.2867 18.3288C12.1177 18.4564 11.9118 18.5255 11.7 18.5257V18.5257Z" fill="white"/>
<defs>
<linearGradient id="paint0_linear_356_8240" x1="4" y1="4" x2="24.5" y2="25" gradientUnits="userSpaceOnUse">
<stop stop-color="#118787"/>
<stop offset="1" stop-color="#006666"/>
</linearGradient>
</defs>
</svg>
