<svg width="26" height="21" viewBox="0 0 26 21" fill="none" xmlns="http://www.w3.org/2000/svg">
<path d="M2.86818 2.70766C2.81912 1.29898 3.91666 0 5.40018 0H20.6017C22.0852 0 23.1828 1.29898 23.1337 2.70766C23.0866 4.06082 23.1478 5.81369 23.5889 7.24293C24.0315 8.67659 24.7777 9.58278 26 9.69922V11.0195C24.7777 11.136 24.0315 12.0422 23.5889 13.4758C23.1478 14.9051 23.0866 16.6579 23.1337 18.0111C23.1828 19.4198 22.0852 20.7188 20.6017 20.7188H5.40018C3.91666 20.7188 2.81912 19.4198 2.86823 18.0111C2.9153 16.6579 2.85411 14.9051 2.41292 13.4758C1.97041 12.0422 1.2223 11.136 0 11.0195V9.69922C1.22225 9.58278 1.97041 8.67659 2.41292 7.24293C2.85411 5.81369 2.9153 4.06082 2.86818 2.70766V2.70766Z" fill="url(#paint0_linear_357_8337)"/>
<path d="M13.563 15.8672C15.9648 15.8672 17.4121 14.6912 17.4121 12.7515C17.4121 11.2853 16.3794 10.2238 14.846 10.0558V9.99469C15.9726 9.81142 16.8567 8.76523 16.8567 7.59685C16.8567 5.93209 15.5423 4.84766 13.5395 4.84766H9.0332V15.8672H13.563ZM10.7857 6.24516H13.1171C14.3845 6.24516 15.1042 6.81025 15.1042 7.83354C15.1042 8.92559 14.2671 9.53649 12.7494 9.53649H10.7857V6.24516V6.24516ZM10.7857 14.4697V10.8424H13.1014C14.76 10.8424 15.6205 11.4533 15.6205 12.6446C15.6205 13.8359 14.7835 14.4697 13.2031 14.4697H10.7857V14.4697Z" fill="url(#paint1_linear_357_8337)" stroke="white"/>
<defs>
<linearGradient id="paint0_linear_357_8337" x1="3.86339" y1="0.548336" x2="26.583" y2="18.5831" gradientUnits="userSpaceOnUse">
<stop stop-color="#118787"/>
<stop offset="1" stop-color="#006666"/>
</linearGradient>
<linearGradient id="paint1_linear_357_8337" x1="9.82575" y1="5.57296" x2="14.9042" y2="14.1617" gradientUnits="userSpaceOnUse">
<stop stop-color="white"/>
<stop offset="1" stop-color="#F1E5FC"/>
</linearGradient>
</defs>
</svg>
