<svg width="18" height="33" viewBox="0 0 18 33" fill="none" xmlns="http://www.w3.org/2000/svg">
<path d="M7.965 16.0804C7.965 15.8789 8.0257 15.6819 8.13943 15.5144C8.25316 15.3468 8.4148 15.2162 8.60392 15.1391C8.79304 15.062 9.00115 15.0418 9.20192 15.0811C9.40269 15.1205 9.58711 15.2175 9.73186 15.36C9.8766 15.5025 9.97518 15.684 10.0151 15.8816C10.055 16.0793 10.0346 16.2841 9.95622 16.4703C9.87788 16.6565 9.74522 16.8156 9.57502 16.9275C9.40481 17.0395 9.2047 17.0992 9 17.0992C8.7256 17.0989 8.46253 16.9915 8.2685 16.8005C8.07447 16.6095 7.96532 16.3505 7.965 16.0804V16.0804ZM4.33479 32.4H13.6652V25.0768H4.33479V32.4ZM10.3859 0V12.5914C11.2123 12.9094 11.8999 13.5015 12.3298 14.2655C12.7598 15.0295 12.9052 15.9173 12.7409 16.7756C12.5765 17.6339 12.1128 18.4087 11.4297 18.9662C10.7467 19.5237 9.88727 19.8288 9 19.8288C8.11273 19.8288 7.25332 19.5237 6.57029 18.9662C5.88725 18.4087 5.42349 17.6339 5.25913 16.7756C5.09478 15.9173 5.24016 15.0295 5.67016 14.2655C6.10015 13.5015 6.78774 12.9094 7.61413 12.5914V0L0 18.9591L3.44301 22.3483H14.5567L18 18.9591L10.3859 0Z" fill="url(#paint0_linear_357_8348)"/>
<defs>
<linearGradient id="paint0_linear_357_8348" x1="0.424542" y1="12.2582" x2="19.066" y2="23.1917" gradientUnits="userSpaceOnUse">
<stop stop-color="#118787"/>
<stop offset="1" stop-color="#006666"/>
</linearGradient>
</defs>
</svg>
