<svg width="23" height="26" viewBox="0 0 23 26" fill="none" xmlns="http://www.w3.org/2000/svg">
<path d="M0.391705 7.4612C0.267968 7.38227 0.166696 7.27152 0.0980294 7.14003C0.0293625 7.00855 -0.00429101 6.86095 0.000437732 6.712C0.00516648 6.56305 0.0481116 6.41798 0.124974 6.29132C0.201837 6.16466 0.30992 6.06084 0.438404 5.99027L11.1012 0.0985988C11.2212 0.0338472 11.3548 0 11.4904 0C11.626 0 11.7596 0.0338472 11.8796 0.0985988L22.5658 5.99027C22.6938 6.06157 22.8013 6.16597 22.8774 6.29303C22.9536 6.4201 22.9958 6.56536 22.9997 6.71429C23.0036 6.86322 22.9692 7.0106 22.8999 7.14168C22.8306 7.27276 22.7288 7.38294 22.6047 7.4612L11.934 14.1321C11.8029 14.2143 11.6521 14.2579 11.4982 14.2579C11.3443 14.2579 11.1935 14.2143 11.0623 14.1321L0.391705 7.4612ZM22.5658 11.5798L20.7756 10.5859L12.8057 15.5791C12.4115 15.8234 11.9593 15.9525 11.4982 15.9525C11.0371 15.9525 10.5849 15.8234 10.1906 15.5791L2.22073 10.5859L0.438404 11.5798C0.30992 11.6504 0.201837 11.7542 0.124974 11.8809C0.0481116 12.0075 0.00516648 12.1526 0.000437732 12.3015C-0.00429101 12.4505 0.0293625 12.5981 0.0980294 12.7296C0.166696 12.8611 0.267968 12.9718 0.391705 13.0507L11.0623 19.7136C11.1935 19.7959 11.3443 19.8395 11.4982 19.8395C11.6521 19.8395 11.8029 19.7959 11.934 19.7136L22.6047 13.0507C22.7288 12.9725 22.8306 12.8623 22.8999 12.7312C22.9692 12.6001 23.0036 12.4528 22.9997 12.3038C22.9958 12.1549 22.9536 12.0096 22.8774 11.8826C22.8013 11.7555 22.6938 11.6511 22.5658 11.5798V11.5798ZM22.5658 17.1455L20.7756 16.1596L12.8057 21.1607C12.4121 21.4067 11.9596 21.5368 11.4982 21.5368C11.0368 21.5368 10.5843 21.4067 10.1906 21.1607L2.22073 16.1755L0.438404 17.1614C0.30992 17.232 0.201837 17.3358 0.124974 17.4624C0.0481116 17.5891 0.00516648 17.7342 0.000437732 17.8831C-0.00429101 18.0321 0.0293625 18.1797 0.0980294 18.3112C0.166696 18.4426 0.267968 18.5534 0.391705 18.6323L11.0623 25.2952C11.1935 25.3775 11.3443 25.4211 11.4982 25.4211C11.6521 25.4211 11.8029 25.3775 11.934 25.2952L22.6047 18.6323C22.7268 18.5526 22.8267 18.4419 22.8946 18.311C22.9625 18.1802 22.9961 18.0337 22.9922 17.8856C22.9883 17.7376 22.9469 17.5931 22.8722 17.4662C22.7975 17.3393 22.6919 17.2343 22.5658 17.1614V17.1455Z" fill="url(#paint0_linear_357_8356)"/>
<defs>
<linearGradient id="paint0_linear_357_8356" x1="1.78488" y1="20.4372" x2="31.7099" y2="-6.70258" gradientUnits="userSpaceOnUse">
<stop offset="0.01" stop-color="#118787"/>
<stop offset="1" stop-color="#006666"/>
</linearGradient>
</defs>
</svg>
