<svg width="26" height="26" viewBox="0 0 26 26" fill="none" xmlns="http://www.w3.org/2000/svg">
<path d="M15.8203 8.65014C15.34 8.176 14.5234 8.5174 14.5234 9.19218V11.8574L13 13.3809L11.4766 11.8574V9.19218C11.4766 8.51725 10.6599 8.17605 10.1797 8.65014C9.11559 9.70065 8.42969 11.1622 8.42969 12.6191C8.42969 14.3065 9.35451 15.7638 10.7148 16.5556V23.7148H15.2851V16.5556C16.6455 15.7639 17.5703 14.3065 17.5703 12.6191C17.5703 11.1622 16.8844 9.70065 15.8203 8.65014Z" fill="#006666"/>
<path d="M25.5251 13.9767L24.4512 13.5489C24.4691 13.1859 24.4691 12.8184 24.4512 12.451L25.5251 12.0233C25.8806 11.8782 26.0725 11.4914 25.9744 11.1202L25.1653 8.17674C25.0657 7.80553 24.6997 7.56081 24.3248 7.61956L23.1478 7.77506C22.9796 7.44924 22.7967 7.13161 22.5988 6.82438L23.2965 5.92728C23.533 5.62377 23.5063 5.19233 23.234 4.92085L21.0798 2.71583C20.809 2.44431 20.3776 2.41607 20.0741 2.65261L19.18 3.34664C18.872 3.14803 18.5522 2.96354 18.2248 2.79546L18.3796 1.67518C18.4331 1.29508 18.1936 0.935042 17.8231 0.835359L14.8804 0.0271771C14.5026 -0.0754516 14.1217 0.120919 13.9774 0.475727L13.5489 1.54797C13.1814 1.52938 12.8155 1.53086 12.451 1.54797L12.0225 0.475727C11.8782 0.120919 11.4973 -0.0739789 11.1194 0.0271771L8.17676 0.835359C7.80632 0.93428 7.56831 1.29432 7.62036 1.67518L7.77509 2.8014C7.44927 2.96878 7.13088 3.1525 6.82294 3.3504L5.92584 2.65337C5.62385 2.41907 5.19089 2.44284 4.92012 2.71583L2.76588 4.92085C2.49365 5.19238 2.41605 5.62382 2.65264 5.92728L3.34591 6.81915C3.14806 7.12861 2.96357 7.44772 2.79544 7.77429L1.67516 7.61956C1.29877 7.56305 0.934258 7.80629 0.834575 8.17674L0.0255809 11.1202C-0.0726299 11.4914 0.119323 11.8782 0.474892 12.0233L1.54876 12.451C1.53089 12.814 1.53089 13.1815 1.54876 13.5489L0.474892 13.9767C0.119323 14.1217 -0.0725791 14.5085 0.0255809 14.8797L0.834626 17.8232C0.934309 18.1944 1.29729 18.4413 1.67521 18.3803L2.80143 18.2248C2.96957 18.5507 3.20331 18.9191 3.40121 19.2263L2.70347 20.1234C2.46693 20.4269 2.4937 20.8584 2.76593 21.1298L4.92017 23.2841C5.18794 23.5556 5.61943 23.5831 5.92589 23.3473L6.81999 22.6533C7.12793 22.8519 7.4478 23.0364 7.77514 23.2044L7.62041 24.3247C7.56683 24.7048 7.80637 25.0649 8.17682 25.1645L11.1195 25.9735C11.4959 26.0739 11.8768 25.8805 12.0226 25.5249L12.4511 24.4519C12.8185 24.4698 13.1845 24.4698 13.549 24.4519L13.9775 25.5249C14.1219 25.8796 14.5075 26.073 14.8805 25.9735L17.8233 25.1645C18.1937 25.0656 18.4317 24.7056 18.3797 24.3247L18.2249 23.1985C18.5507 23.0311 18.8691 22.8474 19.1771 22.6495L20.0742 23.3465C20.3777 23.5831 20.8091 23.5563 21.0799 23.2841L23.2341 21.1298C23.5064 20.8583 23.5332 20.4269 23.2966 20.1234L22.6033 19.2315C22.8012 18.9221 22.9857 18.5522 23.1538 18.2256L24.3249 18.3803C24.7027 18.4436 25.0658 18.1944 25.1654 17.8232L25.9745 14.8797C26.0725 14.5085 25.8806 14.1217 25.5251 13.9767V13.9767ZM13 21.4296C8.38055 21.4296 4.62107 17.6201 4.62107 13C4.62107 8.37986 8.38055 4.62109 13 4.62109C17.6194 4.62109 21.3788 8.37986 21.3788 13C21.3788 17.6201 17.6194 21.4296 13 21.4296Z" fill="url(#paint0_linear_357_8364)"/>
<defs>
<linearGradient id="paint0_linear_357_8364" x1="13" y1="25.9999" x2="13" y2="9.2983e-06" gradientUnits="userSpaceOnUse">
<stop stop-color="#118787"/>
<stop offset="1" stop-color="#006666"/>
</linearGradient>
</defs>
</svg>
