<svg width="27" height="24" viewBox="0 0 27 24" fill="none" xmlns="http://www.w3.org/2000/svg">
<path d="M10.1162 15.7617H16.4246C17.7291 15.7617 18.7903 14.7011 18.7903 13.3974V2.36426C18.7903 1.06058 17.7291 0 16.4246 0H10.1162C8.81173 0 7.75054 1.06049 7.75054 2.36426V13.3974C7.75054 14.7012 8.81173 15.7617 10.1162 15.7617ZM13.2705 11.0332C13.706 11.0332 14.0591 11.386 14.0591 11.8213C14.0591 12.2565 13.706 12.6094 13.2705 12.6094C12.835 12.6094 12.482 12.2565 12.482 11.8213C12.482 11.386 12.835 11.0332 13.2705 11.0332V11.0332ZM26.3981 20.8232C26.2503 20.6144 26.0103 20.4902 25.7543 20.4902H0.788811C0.532609 20.4902 0.292316 20.6146 0.144484 20.8237C-0.00334768 21.0328 -0.0402616 21.3006 0.0454317 21.542C0.479699 22.7648 1.649 23.6426 3.01912 23.6426H23.5216C24.3718 23.6426 25.1557 23.3178 25.7456 22.7129C26.0882 22.3801 26.3427 21.9806 26.498 21.5409C26.5833 21.2996 26.546 21.032 26.3981 20.8232V20.8232ZM25.0988 5.51663C25.0988 4.21295 24.0376 3.15237 22.7332 3.15237H20.3675V13.3974C20.3675 15.5701 18.5994 17.3378 16.4247 17.3378H10.1163C7.94161 17.3378 6.17352 15.57 6.17352 13.3974V3.15237H3.80785C2.50338 3.15237 1.44219 4.21286 1.44219 5.51663V18.9141H25.0989V5.51663H25.0988Z" fill="#006666"/>
</svg>
