<svg width="21" height="25" viewBox="0 0 21 25" fill="none" xmlns="http://www.w3.org/2000/svg">
<path d="M1.40002 0C0.64638 0 0 0.636432 0 1.4412V6.48536C0 6.88888 0.30798 7.20592 0.699968 7.20592H2.79995V1.4412C2.80003 0.64852 2.17004 0 1.40002 0ZM10.5581 7.77307L10.4835 8.22064L10.8739 8.00955C11.078 7.8989 11.3215 7.89865 11.526 8.00955L11.9163 8.22064L11.8418 7.77307C11.8028 7.53943 11.878 7.30092 12.0427 7.1355L12.3585 6.81814L11.9224 6.75267C11.6941 6.71892 11.4972 6.57111 11.3953 6.35864L11.1998 5.95123L11.0043 6.35864C10.9025 6.57119 10.7055 6.71892 10.4772 6.75267L10.0411 6.81814L10.3569 7.1355C10.5219 7.30092 10.5971 7.53943 10.5581 7.77307ZM8.40002 20.897C8.40002 20.4934 8.708 20.1765 9.09998 20.1765H18.1999V3.60296C18.1999 1.61416 16.6319 0 14.6999 0H3.81066C4.05181 0.425667 4.20005 0.913801 4.20005 1.4412V20.897C4.20005 22.0932 5.13801 23.0588 6.30003 23.0588C7.09402 23.0588 8.40002 22.4317 8.40002 20.897ZM8.43627 5.60214L9.91217 5.38116L10.5725 4.00469C10.8077 3.5121 11.5924 3.5121 11.8276 4.00469L12.4879 5.38116L13.9638 5.60214C14.5364 5.68765 14.767 6.41438 14.3521 6.83079L13.2836 7.90255L13.5359 9.41619C13.6346 10.0071 13.0295 10.4516 12.5201 10.1754L11.2 9.46122L9.88002 10.1754C9.36698 10.4548 8.76631 10.0026 8.86419 9.41619L9.11646 7.90255L8.04798 6.83079C7.63369 6.41502 7.86279 5.68781 8.43627 5.60214ZM7 12.25H15.3999C15.7868 12.25 16.0999 12.5723 16.0999 12.9706C16.0999 13.3688 15.7868 13.6911 15.3999 13.6911H7C6.61306 13.6911 6.29995 13.3688 6.29995 12.9706C6.29995 12.5723 6.61313 12.25 7 12.25ZM7 15.1323H15.3999C15.7868 15.1323 16.0999 15.4546 16.0999 15.8529C16.0999 16.2512 15.7868 16.5735 15.3999 16.5735H7C6.61306 16.5735 6.29995 16.2512 6.29995 15.8529C6.30003 15.4546 6.61313 15.1323 7 15.1323ZM20.3 21.6177H19.6H9.73305C9.39118 23.4156 7.79296 24.5 6.30003 24.5H19.6C20.3699 24.5 21 23.8515 21 23.0588V22.3382C20.9999 21.9346 20.692 21.6177 20.3 21.6177Z" fill="url(#paint0_linear_357_8384)"/>
<defs>
<linearGradient id="paint0_linear_357_8384" x1="10.5" y1="0" x2="10.5" y2="24.5" gradientUnits="userSpaceOnUse">
<stop stop-color="#006666"/>
<stop offset="1" stop-color="#118787"/>
</linearGradient>
</defs>
</svg>
