<svg width="24" height="20" viewBox="0 0 24 20" fill="none" xmlns="http://www.w3.org/2000/svg">
<path d="M3.30413 0.197452C3.02763 -0.0658173 2.59907 -0.0658173 2.32257 0.197452C2.05993 0.474651 2.05993 0.904225 2.32257 1.18135L6.15208 5.01988L7.13356 4.03599L3.30413 0.197452ZM18.3177 9.3851L10.5482 1.58322C10.4238 1.44469 10.244 1.37528 10.0644 1.37528C9.88462 1.37528 9.70493 1.44469 9.58049 1.58322L7.13348 4.03606L10.1611 7.07093C10.9215 6.69677 11.8754 6.83529 12.5113 7.45887C13.3132 8.27654 13.3132 9.59289 12.5113 10.4106C11.6737 11.2214 10.3747 11.1926 9.56664 10.4106C8.93077 9.77312 8.80633 8.81685 9.16579 8.0409L6.152 5.01996L0.207394 10.9787C0.0691053 11.1035 0 11.2836 0 11.4638C0 11.6439 0.0691053 11.8241 0.207394 11.9488L8.03216 19.7922C8.1566 19.9307 8.33637 20 8.51598 20C8.69574 20 8.87543 19.9307 8.99987 19.7922L18.373 10.3967C18.6301 10.1562 18.6773 9.68526 18.3177 9.3851V9.3851ZM11.5298 9.42658C11.7925 9.14946 11.7925 8.71989 11.5298 8.44277C11.2477 8.16004 10.8179 8.17234 10.5483 8.44277C10.2856 8.71997 10.2856 9.14954 10.5483 9.42658C10.8109 9.68993 11.2672 9.68993 11.5298 9.42658ZM19.3546 6.44728H17.3614C19.3573 8.49872 19.5566 8.53133 19.7981 9.11662C19.8254 9.18246 19.8288 9.25195 19.8491 9.31919C20.3663 9.51989 20.7371 10.0163 20.7371 10.6046V13.3761C20.7371 14.14 21.3575 14.7619 22.1196 14.7619C22.8817 14.7619 23.502 14.14 23.502 13.3761V10.6046C23.502 8.31211 21.6416 6.44728 19.3546 6.44728Z" fill="url(#paint0_linear_357_8393)"/>
<defs>
<linearGradient id="paint0_linear_357_8393" x1="11.751" y1="20" x2="11.751" y2="-5.84127e-05" gradientUnits="userSpaceOnUse">
<stop stop-color="#118787"/>
<stop offset="1" stop-color="#006666"/>
</linearGradient>
</defs>
</svg>
