<svg width="42" height="45" viewBox="0 0 42 45" fill="none" xmlns="http://www.w3.org/2000/svg">
<path d="M10.8682 10.7077C10.8191 9.29898 11.9167 8 13.4002 8H28.6017C30.0852 8 31.1828 9.29898 31.1337 10.7077C31.0866 12.0608 31.1478 13.8137 31.5889 15.2429C32.0315 16.6766 32.7777 17.5828 34 17.6992V19.0195C32.7777 19.136 32.0315 20.0422 31.5889 21.4758C31.1478 22.9051 31.0866 24.6579 31.1337 26.0111C31.1828 27.4198 30.0852 28.7188 28.6017 28.7188H13.4002C11.9167 28.7188 10.8191 27.4198 10.8682 26.0111C10.9153 24.6579 10.8541 22.9051 10.4129 21.4758C9.97041 20.0422 9.2223 19.136 8 19.0195V17.6992C9.22225 17.5828 9.97041 16.6766 10.4129 15.2429C10.8541 13.8137 10.9153 12.0608 10.8682 10.7077Z" fill="url(#paint0_linear_159_140)"/>
<g filter="url(#filter0_d_159_140)">
<path d="M21.5638 23.8672C23.9656 23.8672 25.413 22.6912 25.413 20.7515C25.413 19.2853 24.3803 18.2238 22.8469 18.0558V17.9947C23.9735 17.8114 24.8575 16.7652 24.8575 15.5969C24.8575 13.9321 23.5432 12.8477 21.5404 12.8477H17.0341V23.8672H21.5638ZM18.7865 14.2452H21.1179C22.3853 14.2452 23.1051 14.8102 23.1051 15.8335C23.1051 16.9256 22.268 17.5365 20.7502 17.5365H18.7865V14.2452ZM18.7865 22.4697V18.8424H21.1022C22.7608 18.8424 23.6214 19.4533 23.6214 20.6446C23.6214 21.8359 22.7843 22.4697 21.204 22.4697H18.7865Z" fill="url(#paint1_linear_159_140)"/>
<path d="M21.5638 23.8672C23.9656 23.8672 25.413 22.6912 25.413 20.7515C25.413 19.2853 24.3803 18.2238 22.8469 18.0558V17.9947C23.9735 17.8114 24.8575 16.7652 24.8575 15.5969C24.8575 13.9321 23.5432 12.8477 21.5404 12.8477H17.0341V23.8672H21.5638ZM18.7865 14.2452H21.1179C22.3853 14.2452 23.1051 14.8102 23.1051 15.8335C23.1051 16.9256 22.268 17.5365 20.7502 17.5365H18.7865V14.2452ZM18.7865 22.4697V18.8424H21.1022C22.7608 18.8424 23.6214 19.4533 23.6214 20.6446C23.6214 21.8359 22.7843 22.4697 21.204 22.4697H18.7865Z" stroke="white"/>
</g>
<defs>
<filter id="filter0_d_159_140" x="0.534058" y="0.347656" width="41.3789" height="44.0195" filterUnits="userSpaceOnUse" color-interpolation-filters="sRGB">
<feFlood flood-opacity="0" result="BackgroundImageFix"/>
<feColorMatrix in="SourceAlpha" type="matrix" values="0 0 0 0 0 0 0 0 0 0 0 0 0 0 0 0 0 0 127 0" result="hardAlpha"/>
<feOffset dy="4"/>
<feGaussianBlur stdDeviation="8"/>
<feColorMatrix type="matrix" values="0 0 0 0 0 0 0 0 0 0 0 0 0 0 0 0 0 0 0.15 0"/>
<feBlend mode="normal" in2="BackgroundImageFix" result="effect1_dropShadow_159_140"/>
<feBlend mode="normal" in="SourceGraphic" in2="effect1_dropShadow_159_140" result="shape"/>
</filter>
<linearGradient id="paint0_linear_159_140" x1="11.8634" y1="8.54834" x2="34.583" y2="26.5831" gradientUnits="userSpaceOnUse">
<stop stop-color="#118787"/>
<stop offset="1" stop-color="#006666"/>
</linearGradient>
<linearGradient id="paint1_linear_159_140" x1="17.8266" y1="13.573" x2="22.905" y2="22.1617" gradientUnits="userSpaceOnUse">
<stop stop-color="white"/>
<stop offset="1" stop-color="#F1E5FC"/>
</linearGradient>
</defs>
</svg>
